<?xml version="1.0" encoding="utf-8"?>
<svg viewBox="0 0 576 512" xmlns="http://www.w3.org/2000/svg">
  <path d="M 0 64 C 0 28.65 28.65 0 64 0 L 224 0 L 224 128 C 224 145.7 238.3 160 256 160 L 384 160 L 384 198.6 C 310.1 219.5 256 287.4 256 368 C 256 427.1 285.1 479.3 329.7 511.3 C 326.6 511.7 323.3 512 320 512 L 64 512 C 28.65 512 0 483.3 0 448 L 0 64 Z M 256 128 L 256 0 L 384 128 L 256 128 Z" style="fill: rgb(27, 110, 175);"/>
  <path fill="#1b6eaf" d="M 566.395 373.274 C 566.529 446.279 506.993 505.973 433.99 506.025 C 402.461 506.048 373.498 495.056 350.739 476.686 C 344.821 471.91 344.379 463.042 349.757 457.663 L 355.777 451.643 C 360.375 447.045 367.719 446.542 372.814 450.584 C 389.583 463.89 410.803 471.831 433.895 471.831 C 488.232 471.831 532.2 427.855 532.2 373.525 C 532.2 319.187 488.225 275.22 433.895 275.22 C 407.815 275.22 384.128 285.353 366.54 301.896 L 393.656 329.014 C 399.042 334.397 395.227 343.607 387.612 343.607 L 309.943 343.607 C 305.222 343.607 301.395 339.779 301.395 335.058 L 301.395 257.389 C 301.395 249.773 310.603 245.958 315.987 251.345 L 342.366 277.722 C 366.154 254.99 398.392 241.025 433.895 241.025 C 506.988 241.025 566.258 300.211 566.395 373.274 Z M 469.737 415.367 L 474.985 408.62 C 479.333 403.029 478.326 394.974 472.737 390.627 L 450.991 373.712 L 450.991 317.96 C 450.991 310.879 445.249 305.139 438.168 305.139 L 429.619 305.139 C 422.538 305.139 416.798 310.879 416.798 317.96 L 416.798 390.436 L 451.744 417.616 C 457.333 421.964 465.389 420.958 469.737 415.367 Z" transform="matrix(1, 0, 0, 1, 0.000123, -0.000143)"/>
</svg>