<svg xmlns="http://www.w3.org/2000/svg" fill="#0b64a9" viewBox="0 0 73.96 74.34"><g id="Layer_2" data-name="Layer 2"><g id="Layer_1-2" data-name="Layer 1"><path d="M19.92,30.46V0H15.26V74.34h4.66V44.22a18.46,18.46,0,0,1,0-13.76Z"></path><path d="M30.51,74.34h4.67V55.76a18.23,18.23,0,0,1-4.67-1.13Z"></path><path d="M38.94,58.79H74V54.23H44.69a18.25,18.25,0,0,1-5.75,1.54Z"></path><path d="M35.18,0H30.51V20.05a18.23,18.23,0,0,1,4.67-1.13Z"></path><path d="M27.71,21.4V0H23V25.31A18.66,18.66,0,0,1,27.71,21.4Z"></path><path d="M23,49.37v25h4.67V53.28A18.66,18.66,0,0,1,23,49.37Z"></path><rect x="7.66" width="4.67" height="74.34"></rect><rect width="4.67" height="74.34"></rect><rect x="38.94" y="61.83" width="35.02" height="4.56"></rect><path d="M74,42.9V38.34H55.59a19,19,0,0,1-.8,4.56Z"></path><path d="M74,35V30.47H54.3A18.31,18.31,0,0,1,55.48,35Z"></path><rect x="38.94" y="69.53" width="35.02" height="4.56"></rect><path d="M74,50.77V46.21H53.38a18.55,18.55,0,0,1-3.54,4.56Z"></path><rect x="38.94" y="7.74" width="35.02" height="4.56"></rect><path d="M38.94,18.91a19,19,0,0,1,4.08.88H74V15.23h-35Z"></path><rect x="38.94" width="35.02" height="4.56"></rect><path  d="M52.66,27.28H74V22.72H48.46A19,19,0,0,1,52.66,27.28Z"></path></g></g></svg>